<svg id="visual" viewBox="0 0 900 600" width="900" height="600" xmlns="http://www.w3.org/2000/svg" xmlns:xlink="http://www.w3.org/1999/xlink" version="1.1"><rect x="0" y="0" width="900" height="600" fill="#56cabe"></rect><path d="M0 386L129 397L257 360L386 357L514 421L643 381L771 431L900 415L900 601L771 601L643 601L514 601L386 601L257 601L129 601L0 601Z" fill="#cccccc"></path><path d="M0 401L129 448L257 456L386 397L514 429L643 412L771 445L900 477L900 601L771 601L643 601L514 601L386 601L257 601L129 601L0 601Z" fill="#bbb9b6"></path><path d="M0 443L129 445L257 487L386 445L514 473L643 451L771 488L900 474L900 601L771 601L643 601L514 601L386 601L257 601L129 601L0 601Z" fill="#aaa6a0"></path><path d="M0 517L129 539L257 497L386 512L514 505L643 511L771 516L900 504L900 601L771 601L643 601L514 601L386 601L257 601L129 601L0 601Z" fill="#99948b"></path><path d="M0 570L129 528L257 571L386 572L514 558L643 547L771 547L900 532L900 601L771 601L643 601L514 601L386 601L257 601L129 601L0 601Z" fill="#888277"></path></svg>